# xmcd
#
# Track frame offsets:
#	150
#	10563
#	23456
#	31367
#	42068
#	54020
#	64999
#	75719
#	83700
#	95169
#	105474
#	114979
#
# Disc length: 1683 seconds
#
# Revision: 0
# Processed by: cddbd v1.5.1PL0 Copyright (c) Steve Scherf et al.
# Submitted via: audiograbber 1.83.01
#
DISCID=7d06910c
DTITLE=Mel Tillis - Mr Mel
DYEAR=1967
DGENRE=Country
TTITLE0=Goodbye Wheeling
TTITLE1=All The Time
TTITLE2=Poison Love
TTITLE3=At The Sight Of You
TTITLE4=Ramblin' Boy
TTITLE5=Honky Tonkin'
TTITLE6=Survival Of The Fittest
TTITLE7=Shine, Shine, Shine
TTITLE8=Not Once But A Hundred Times
TTITLE9=Night Train To Memphis
TTITLE10=Down Came The World
TTITLE11=Tom Dooley
EXTD=
EXTT0=
EXTT1=
EXTT2=
EXTT3=
EXTT4=
EXTT5=
EXTT6=
EXTT7=
EXTT8=
EXTT9=
EXTT10=
EXTT11=
PLAYORDER=
